<svg xmlns="http://www.w3.org/2000/svg" viewBox="0 0 800 1320.53"><defs><style>.cls-1{fill:#5ad4ff;}.cls-2{fill:#f8b638;}</style></defs><title>Gluck_INVADERS_Layout</title><g id="Camada_2" data-name="Camada 2"><path class="cls-1" d="M553.19,513.08c-1.45,69.63-48.18,132.16-114.58,153.2-52.86,16.74-114.22,6.25-157-29.22-58.82-48.78-77-135.61-43.71-204.3,31.17-64.39,100.48-98,170.52-89.56C494.57,353.58,555,426.87,553.19,513.08M713,143.48c-12.45-12.43-25.77-30.64-41.2-39.42-20.63-11.74-36.84,9.83-50.06,23.06l-47.51,47.52c-2.94,2.94-8.62,11.41-12.68,12.69-3.34,1-18.7-8.44-22.52-10.05-10.34-4.34-21.06-8.86-31.92-11.75-40.28-10.73-80.86-19.12-122.76-19.05-44.62.07-89.26,8.37-131.25,23.39-71.93,25.72-133,73.95-175.43,137.35-46.5,69.43-65.8,149-58.07,231.93C27.9,628,63.47,709.43,129.36,770.55c63.19,58.6,144.23,90.72,229.7,97.49q13.44,1.07,26.9,1.21c88.65,0,180-43.52,184.47-46,148.6-80.5,219.74-262,170.32-423.48a291.18,291.18,0,0,0-26.06-59.27c.47-.2-8.06-12.13-7.36-15.3s9.17-9.16,11.41-11.41Q739.64,293,760.5,272.07c11.39-11.4,30.52-24.86,29.32-42.23-1.14-16.55-20.63-30.12-31.33-40.87Q735.8,166.2,713,143.48"/><path class="cls-2" d="M722,913.1c-37.08-.14-74.14-.1-111.21-.07-22.84,0-51.51-3.54-58.26,25.33-3.49,14.92-3.77,30.18-8.27,45a156.53,156.53,0,0,1-21.45,44.47,171.46,171.46,0,0,1-83.11,62.83c-67.24,23.35-144.84.31-187.33-57.16A156,156,0,0,1,230,990.23c-5.63-16.85-6.5-33.84-9.87-51.09-6.38-32.62-38-26.1-64-26.1q-29,0-57.9,0c-19.16,0-40-2.29-59,.6-20.72,3.15-22.77,21.09-21.67,38.45,4.58,72.07,26.05,142.84,70.14,200.74,97.15,127.53,270.66,170.49,420.75,123.13,141.57-44.68,246.48-183.59,246.14-333.3C754.54,922,741.41,913.18,722,913.1"/></g></svg>