<svg xmlns="http://www.w3.org/2000/svg" viewBox="0 0 2575.43 1448.68"><defs><style>.cls-1{fill:#060d1e;}.cls-2{fill:#e73d2a;}.cls-3{fill:#f8b638;}</style></defs><title>Gluck_INVADERS_Layout</title><g id="Camada_2" data-name="Camada 2"><path class="cls-1" d="M336.82,788.05c76.48,137.19,149.37,276.35,226.41,413.23H480.08C393.24,1064.86,311.71,925.17,226,788.05Z"/><path class="cls-1" d="M797.09,1201.28H733.73q-53.87-81.37-108.81-162h-3.1c23.84,54.07,47.7,108.14,72,162H617.5c-70.69-137.15-138.06-276-208.57-413.23h78.13c45.15,58.7,88.51,118.57,130.77,179.38h3.8q-37.87-89.85-76.43-179.38H646.34C697.53,925.45,746.9,1063.51,797.09,1201.28Z"/><path class="cls-1" d="M1005.47,1201.28h-120c-56.79-139.22-115.86-277.41-180.39-413.23H812.89q52.3,147.59,99.82,296.77l5,0q-28.31-148.24-55.19-296.75H970.36C979.24,926,992.21,1063.66,1005.47,1201.28Z"/><path class="cls-1" d="M1266.16,1201.28H1186q-4.56-36.13-9.71-72.2l-34.2.09q1,36,1.75,72.11h-80.09c-5.19-137.72-10.3-275.4-10.4-413.23h149C1228.41,925.08,1250.56,1062.64,1266.16,1201.28Zm-126.7-313.42h-6.28q2.79,81.69,6,163.37l26.29-.08Q1153.17,969.39,1139.46,887.86Z"/><path class="cls-1" d="M1504.34,1145.24c-19.4,18.56-38.76,37.16-57.86,56h-138.6c4.86-137.7,5.75-275.47,7.71-413.23h177.46q29.29,28.8,57.7,58.3C1535.66,946,1520.82,1045.77,1504.34,1145.24Zm-62.53-278.53H1420.4c-6.47,86.15-12.92,172.3-20.43,258.37l18.13,0C1426.7,1039,1434.24,952.86,1441.81,866.71Z"/><path class="cls-1" d="M1800.38,866.61l-70.54,0-20.28,77.93,56.21-.08q-11.7,39.51-23.48,79l-53.41.14q-13.35,50.43-27,100.77l63-.16q-12.33,38.57-24.91,77H1558.1c30.45-137.28,56.77-275.4,84.55-413.23h181.7Q1812.32,827.32,1800.38,866.61Z"/><path class="cls-1" d="M2047.76,957.38q-30,19.17-59.64,38.87c9.09,15.94,13.4,23.9,21.59,39.79q-40.18,82.79-81,165.24h-79.41q36-82.27,71-165l-18.64,0q-34,82.67-68.88,164.94h-82c50-137.11,96.55-275.4,144.46-413.23h171.4c14.76,23.24,21.72,34.91,34.76,58.24Q2074.54,901.82,2047.76,957.38Zm-56.09-90.83h-20.8q-18.55,45.51-37.08,91l19.64,0Q1972.56,912,1991.67,866.55Z"/><path class="cls-1" d="M2349.5,922.34l-96.2.1,34-56H2266.5l-49.34,83.13,54.81,5.68c9.61,23.27,13.94,34.89,21.6,58.12q-44,65.11-88,130.25c-28.85,19-57.61,38.12-86.12,57.63h-87.9c-6-22.88-9.5-34.3-17.32-57.2q20.37-38.2,40.65-76.48l92.29-.27c-13.31,22.36-20,33.53-33.3,55.85l17.41,0q26-42.62,51.9-85.27l-49-5c-10.18-23-15.75-34.54-27.85-57.62q34-64.46,68.07-128.92,45.48-29.49,91.41-58.23h112c9.95,23.27,14.49,34.93,22.68,58.21Z"/><path class="cls-2" d="M284.21,829c80.55,144.49,157.32,291,238.46,435.22H435.1C343.61,1120.53,257.78,973.37,167.49,829Z"/><path class="cls-2" d="M769,1264.19H702.25q-56.73-85.71-114.6-170.62h-3.27Q622,1179,660.25,1264.19H579.83C505.36,1119.75,434.44,973.51,360.16,829h82.28C490,890.79,535.67,953.85,580.18,1017.9h4Q544.3,923.27,503.68,829H610.2C664.11,973.68,716.12,1119.09,769,1264.19Z"/><path class="cls-2" d="M988.45,1264.19H862.06C802.25,1117.56,740,972,672.07,829H785.62q55.13,155.43,105.13,312.56l5.3,0Q866.24,985.38,837.93,829H951.47C960.82,974.3,974.48,1119.24,988.45,1264.19Z"/><path class="cls-2" d="M1263,1264.19h-84.45q-4.8-38.06-10.22-76l-36,.09q1,38,1.84,76h-84.35c-5.47-145-10.85-290.05-11-435.22h156.93C1223.26,973.29,1246.58,1118.17,1263,1264.19Zm-133.44-330.1H1123q2.94,86,6.36,172.06l27.68-.08Q1144,1020,1129.57,934.09Z"/><path class="cls-2" d="M1513.87,1205.17q-30.66,29.32-60.94,59H1307c5.12-145,6.06-290.13,8.12-435.22H1502q30.86,30.33,60.77,61.4C1546.85,995.37,1531.23,1100.4,1513.87,1205.17ZM1448,911.82h-22.55c-6.81,90.74-13.59,181.48-21.52,272.13l19.1,0C1432.11,1093.27,1440,1002.54,1448,911.82Z"/><path class="cls-2" d="M1825.67,911.7l-74.3,0L1730,993.8l59.21-.08q-12.33,41.61-24.74,83.2l-56.25.15q-14.06,53.12-28.44,106.14l66.4-.17q-13,40.62-26.23,81.15H1570.49c32.07-144.59,59.79-290.06,89-435.22h191.37Q1838.24,870.33,1825.67,911.7Z"/><path class="cls-2" d="M2086.21,1007.31q-31.59,20.19-62.81,40.94c9.57,16.78,14.12,25.17,22.74,41.91q-42.33,87.18-85.35,174h-83.63q37.9-86.65,74.73-173.77l-19.63.06q-35.8,87-72.54,173.71h-86.33C1826,1119.78,1875.08,974.13,1925.54,829h180.52c15.55,24.48,22.88,36.76,36.62,61.34Q2114.4,948.8,2086.21,1007.31Zm-59.07-95.67h-21.91q-19.55,47.93-39,95.86l20.68,0Q2007,959.56,2027.14,911.64Z"/><path class="cls-2" d="M2404,970.4l-101.32.11,35.78-59h-21.88l-52,87.57c23.2,2.39,34.74,3.59,57.73,6,10.12,24.51,14.67,36.74,22.74,61.21l-92.63,137.18q-45.57,30-90.7,60.7h-92.58c-6.36-24.09-10-36.13-18.24-60.24q21.48-40.23,42.81-80.55l97.21-.29c-14,23.55-21,35.32-35.07,58.83l18.33,0q27.36-44.88,54.66-89.81c-20.55-2.13-30.87-3.19-51.6-5.32-10.73-24.24-16.6-36.38-29.34-60.69q35.85-67.87,71.7-135.77,47.89-31.06,96.27-61.33h118c10.48,24.51,15.26,36.78,23.89,61.3Z"/><path class="cls-3" d="M371.11,1350.8l-2.21-3.45c-54.55-85.63-108-173.86-159.8-259.18-40.81-67.3-83-136.89-125.45-204.74L76.49,872H218.78l2.14,3.83c39.88,71.51,79.51,144.69,117.84,215.46,44.23,81.66,90,166.11,136.29,248.38l6.28,11.14Z"/><path class="cls-1" d="M214.39,879.46c85.88,154,167.63,310.24,254.15,463.87H375.21c-97.54-153.1-189-310-285.22-463.87h124.4m8.78-14.94H63l14.31,22.87c42.41,67.81,84.6,137.38,125.41,204.67,51.76,85.35,105.28,173.61,159.88,259.3l4.41,6.92H494.12L481.57,1336c-46.31-82.22-92-166.63-136.24-248.27-38.34-70.79-78-144-117.88-215.54l-4.28-7.66Z"/><path class="cls-3" d="M655.92,1350.8l-2.21-3.35c-31.33-47.33-59.32-89.23-85.79-128.38,17.4,39.29,35.51,80,54.08,121.19l4.75,10.54H524.92l-2.09-4c-40.86-79.23-81.37-160.28-120.54-238.67-37-74-75.17-150.44-113.6-225.21L283.09,872H386.71L389,874.9c38.45,49.93,77.09,102.38,117.35,159.32-24.52-57.93-45.1-106.08-64.87-151.79L436.92,872H567l1.81,4.87c39.47,105.92,78.61,214,116.46,318.45,17.27,47.69,35.13,97,52.79,145.46l3.66,10Z"/><path class="cls-1" d="M561.84,879.46c57.47,154.24,112.88,309.23,169.23,463.87H659.94Q599.49,1252,537.8,1161.49h-3.48q40.14,91.05,80.86,181.83H529.47c-79.4-153.94-155-309.82-234.14-463.87H383c50.72,65.86,99.4,133.1,146.8,201.37h4.27Q491.59,980,448.3,879.46H561.84m10.38-14.94H425.54l9,20.88C446.83,913.71,459.39,943,473,974.87c-26.41-36.37-52.31-71-78.11-104.53l-4.49-5.82H270.84L282,886.3c38.41,74.74,76.63,151.21,113.58,225.15,39.17,78.4,79.68,159.47,120.56,238.73l4.18,8.1H638.31l-9.5-21.09q-9.51-21.11-19-42.24c12,18.06,24.54,36.87,37.62,56.63l4.44,6.7H752.43l-7.32-20.07c-17.66-48.48-35.53-97.82-52.82-145.53-37.84-104.48-77-212.51-116.44-318.43l-3.63-9.73Z"/><path class="cls-3" d="M825.24,1350.8l-1.89-4.65c-74.2-182-138.48-329.23-202.32-463.48L616,872H754.08l1.76,5c29.55,83.25,58.87,169.5,89,261.91-14.63-77.33-31.37-167-47.68-258.1L795.62,872h137l.45,7c9.69,151.3,23.57,299.48,39.39,463.62l.79,8.19Z"/><path class="cls-1" d="M925.57,879.46c9.92,154.9,24.52,309.39,39.41,463.87H830.27c-63.72-156.28-130-311.43-202.49-463.87h121q58.77,165.66,112.05,333.14l5.65,0c-21.18-110.94-42-221.94-62-333.12h121m14-14.94H786.69l3.15,17.58c9.09,50.79,18.31,101.14,27.24,149.17-18.14-53.86-36.13-105.89-54.19-156.8l-3.53-10H604.12l10.16,21.36c63.78,134.12,128,281.27,202.15,463.09l3.79,9.31H981.44l-1.58-16.38c-15.81-164.09-29.69-312.22-39.37-463.39l-.9-14Z"/><path class="cls-3" d="M1161,1350.8l-.85-6.51c-3.14-24.28-6.5-49.32-10-74.51l-24.22.06c.59,23,1.23,48.38,1.77,73.33l.16,7.63H1023.19l-.28-7.19c-5.7-151.25-11.6-307.66-11.68-464.14V872h180.92l1.16,6.08c32.14,168.59,55.61,320.51,71.73,464.43l.94,8.3Zm-43-297.67c1.44,39.71,2.94,78.69,4.31,114.27l13.64,0C1130.32,1130.24,1124.32,1092,1118,1053.13Z"/><path class="cls-1" d="M1186,879.46c29.32,153.79,54.21,308.27,71.65,463.87h-90q-5.27-40.56-10.89-81l-38.4.1q1,40.47,2,80.94h-89.9c-5.82-154.59-11.59-309.15-11.67-463.87H1186m-70.85,295.43,29.51-.08Q1130.82,1083,1115.4,991.5h-7.06q3.14,91.7,6.78,183.38m83.22-310.37H1003.75v15c.08,156.62,6,313.1,11.68,464.42l.55,14.39h119.57l-.33-15.27c-.48-22.09-1-44.71-1.57-65.71l10,0c3.15,23,6.2,45.76,9.08,68l1.69,13h119.86l-1.86-16.61c-16.14-144.11-39.64-296.21-71.82-465l-2.31-12.15Z"/><path class="cls-3" d="M1296.7,1350.8l.28-7.73c4.3-121.4,5.85-244.93,7.35-364.39.41-32.55.83-66.21,1.3-99.32l.1-7.37h209.61l2.18,2.1c22.11,21.41,44,43.51,65,65.68l2.51,2.65-.55,3.61q-3.57,23.58-7.13,47.16c-14.28,94.6-29,192.43-45,288.46l-.41,2.47-1.82,1.73c-21.19,20.13-43,41.26-64.84,62.8l-2.19,2.15ZM1437.26,981c-6.63,88.29-13.48,179.48-21.28,269.29h5.43c8.93-89.58,16.93-180.63,24.67-268.76l.55-6.3h-8.94Z"/><path class="cls-1" d="M1512.32,879.46q33.08,32,64.76,65.45c-16.94,111.91-33.57,223.86-52.09,335.52q-32.79,31.13-65,62.9H1304.45c5.48-154.57,6.45-309.23,8.65-463.87h199.22m-57.53,88.31h-24c-7.27,96.71-14.48,193.42-22.94,290l20.35,0c9.69-96.59,18.12-193.29,26.62-290m63.58-103.25h-220l-.21,14.73c-.47,33.09-.89,66.72-1.3,99.24-1.49,119.45-3,243-7.34,364.31l-.55,15.48h177.21l4.37-4.31c21.79-21.5,43.58-42.6,64.74-62.7l3.64-3.45.81-5c16-96.15,30.74-194.09,45-288.79q3.54-23.48,7.09-46.93l1.09-7.22-5-5.3c-21.09-22.26-43-44.43-65.22-65.91l-4.34-4.2Z"/><path class="cls-3" d="M1576,1350.8l2-9.09c25.13-113.07,48.07-228.61,70.26-340.34,8-40.45,16.34-82.27,24.63-123.38l1.21-6h220.2l-3,9.67c-8.18,26.62-16.73,54.63-26.9,88.16l-1.61,5.3-78.95,0q-6.66,25.54-13.3,51.09l-5.57,21.43,63.44-.09-2.85,9.61c-10.26,34.7-18.64,62.88-26.36,88.7l-1.59,5.32-59.77.16c-8.84,33.53-17.66,66.49-26.28,98.17l71.2-.19-3.1,9.76c-9.68,30.48-18.84,58.8-28,86.57l-1.69,5.13Z"/><path class="cls-1" d="M1884.22,879.46q-13.54,44.07-26.91,88.19l-79.19,0q-11.4,43.74-22.76,87.48l63.1-.09q-13.12,44.36-26.36,88.68l-60,.16q-14.91,56.63-30.31,113.13l70.77-.19q-13.77,43.32-28,86.49H1585.33c34.24-154.09,63.72-309.15,94.92-463.87h204m20.23-14.94H1668l-2.42,12c-8.29,41.13-16.6,83-24.63,123.41-22.18,111.69-45.12,227.18-70.22,340.17l-4,18.19h188.75l3.39-10.27c9.16-27.84,18.33-56.18,28-86.65l6.21-19.52-20.49.05-51.15.14c7.32-27,14.78-54.9,22.26-83.21l19.74-.06,28.73-.07,11.1,0,3.18-10.64c7.79-26.06,16.17-54.25,26.37-88.72l5.69-19.22-20,0-34.07.05h-9.67l2.86-11q6.06-23.28,12.12-46.56h1.64l66,0h11.08l3.22-10.6c10-33,18.81-61.83,26.9-88.13l5.94-19.34Z"/><path class="cls-3" d="M1900.76,1350.8l4.58-10.47c23.19-53,47.83-110.26,75.19-174.7l-4.6,0c-27.52,66.86-52.22,126-75.45,180.6l-1.93,4.55H1790.91l3.66-10c40.18-110.21,79-223,116.62-332.07,14.87-43.18,30.25-87.82,45.5-131.69l1.75-5h201.81l2.21,3.45c13.8,21.57,27,43.7,39.26,65.77l1.88,3.39-1.68,3.49q-24.36,50.43-48.69,100.86l-12.42,25.74-1.76,1.14c-19.6,12.63-40.35,26-61.05,39.72,8.06,14.25,12.75,23,20.94,38.88l1.71,3.32-1.63,3.36c-33.58,69.16-63.34,129.85-91,185.54l-2.06,4.15Zm153-375.74q-13.59,33.35-27.17,66.7l-8.36,20.51h6s28.55-67.94,36.65-87.2Z"/><path class="cls-1" d="M2156.16,879.46c13.65,21.34,26.73,43.23,39,65.38q-30.12,62.34-60.19,124.71c-22.4,14.43-44.76,28.88-66.95,43.63,10.2,17.89,15,26.83,24.25,44.67q-45.12,92.93-91,185.48h-89.14q40.39-92.36,79.65-185.2l-20.92.06q-38.18,92.77-77.32,185.14h-92c56.1-153.9,108.38-309.15,162.16-463.87h192.41M2072,967.58h-23.35q-20.82,51.07-41.62,102.17l22,0L2072,967.58m92.3-103.06H1953.12l-3.49,10c-15.25,43.86-30.62,88.5-45.5,131.66-37.57,109.06-76.42,221.83-116.58,332l-7.32,20.07H2010.6l4.12-8.3c27.66-55.7,57.43-116.41,91-185.6l3.27-6.73-3.43-6.65c-6.92-13.43-11.49-22-17.65-33,18.73-12.34,37.42-24.41,55.16-35.85l3.54-2.28,1.83-3.79,10.82-22.42q24.67-51.15,49.37-102.27l3.37-7-3.76-6.77c-12.33-22.22-25.63-44.48-39.51-66.18l-4.41-6.89Z"/><path class="cls-3" d="M2111.1,1350.8l-1.47-5.56c-6.75-25.57-10.53-38.08-19.28-63.69l-1-3.08,1.53-2.86c14.68-27.51,29.61-55.59,45.61-85.83l2.1-4,121.28-.36-6.74,11.34q-15.3,25.7-30.62,51.37h2.15q25-41,49.94-82l-43.24-4.44-4.34-.45-1.75-4c-9.4-21.45-19.84-43-31-64.19l-1.85-3.49,30.13-57.07q24.06-45.57,48.13-91.14l.91-1.71,1.62-1.06c36-23.44,69.56-44.85,102.75-65.46l1.81-1.12h132.81l1.95,4.51c9.37,21.71,18,43.86,25.66,65.85l1.23,3.52-61.64,91.81-125.27.13s27.72-45.69,38.14-62.85h-5.78l-47.24,79.62,49.9,5.18,4.44.46,1.7,4.12c10.82,26.18,15.84,39.7,24.43,65.74l1.15,3.49-101.62,150.5-1.26.83c-30.6,20-62.18,41.12-96.55,64.6l-1.9,1.3Z"/><path class="cls-1" d="M2505.6,879.46c9.24,21.41,17.8,43.32,25.46,65.34l-57.34,85.41-108,.11,38.13-62.84h-23.31q-27.71,46.66-55.38,93.32l61.52,6.38c10.79,26.12,15.64,39.16,24.24,65.24l-98.72,146.21q-48.69,31.81-96.67,64.69h-98.68c-6.78-25.68-10.67-38.5-19.44-64.2q22.89-42.89,45.63-85.86l103.6-.31q-18.66,31.36-37.38,62.71l19.54-.05q29.16-47.85,58.27-95.73l-55-5.66c-9.59-21.88-20.1-43.57-31.27-64.69q38.22-72.35,76.42-144.71,51-33.23,102.61-65.37H2505.6m9.82-14.94H2375.56l-3.62,2.24c-33.23,20.63-66.88,42.07-102.88,65.55l-3.25,2.11-1.8,3.43q-24.62,46.57-49.21,93.16-13.61,25.79-27.22,51.55l-3.69,7,3.7,7c11.11,21,21.47,42.42,30.79,63.69l3.5,8,8.66.89,31.48,3.23-3.44,5.65-12,0-51.8.16-51.81.15-9,0-4.19,7.93c-16.12,30.44-31,58.51-45.61,85.81l-3.05,5.73,2.09,6.14c8.69,25.43,12.44,37.83,19.13,63.19l2.94,11.13h114.81l3.82-2.61c34.34-23.46,65.88-44.56,96.42-64.52l2.52-1.65,1.69-2.5,49.36-73.1,49.36-73.11,4.11-6.08-2.3-7c-8.66-26.24-13.72-39.86-24.62-66.26l-3.41-8.24-8.86-.92-38.29-4,1.81-3.06,14,0,54,0,54-.06h8l4.44-6.61,57.34-85.4,4.17-6.2-2.46-7.05c-7.72-22.16-16.42-44.49-25.86-66.35l-3.9-9Z"/><path class="cls-1" d="M871.42,330.41H757.27l-25.93-78.27H701.86q43.53,125.3,87,250.57h25.45C807,480.42,803.27,469.27,795.89,447H782.11c-10.4-30.63-15.61-45.94-26-76.58h126Q902.41,446.7,922.73,523c-16.16,22.53-23.84,33.79-38.41,56.31H778.06Q736.38,550.78,694.28,523,634.4,377.71,574.51,232.43c17.7-22.74,27-34.12,46.33-56.87H758.3q43.82,28,87,56.87Z"/><path class="cls-1" d="M1068.9,502.71h74.64c3.79,30.63,5.69,45.95,9.49,76.58H981.23q-48-201.87-96-403.73H1013Z"/><path class="cls-1" d="M1395.07,523q-30.4,27.54-59.78,56.31H1230.66q-31.47-28.72-64.05-56.31-19.26-173.7-38.5-347.42h127.7l14.43,327.15h19.67l-10.38-327.15h127.7Q1401.16,349.28,1395.07,523ZM1253.76,145.16h-96.41c-2.75-29.28-4.13-43.92-6.88-73.2h100C1251.81,101.24,1252.46,115.88,1253.76,145.16Zm123.35,0H1280.7c-.9-29.28-1.35-43.92-2.24-73.2h100C1377.94,101.24,1377.66,115.88,1377.11,145.16Z"/><path class="cls-1" d="M1704.82,332.1h-114c4.55-32,6.83-48,11.39-80h-24.78q-16.17,125.3-32.33,250.57h21.4q6.83-47.85,13.64-95.72h109.19q-12,58-24,116-36.57,27.54-72.25,56.31h-91.4c-20.79-19.21-42.08-38-63.67-56.31q9-145.28,18.1-290.55c24.86-19.34,50.11-38.13,75.42-56.87h134q30.55,27.83,60.08,56.87Z"/><path class="cls-1" d="M1865.43,334.92h1.28q57.26-80.87,117.57-159.36H2112q-86.34,92.28-167.87,188.64A2076.43,2076.43,0,0,1,1963,579.29H1857.27c-2.93-55.44-7.66-110.41-14.21-165.54h-1.22L1792.3,579.29h-98l94.62-403.73h124.2Q1889.28,255.24,1865.43,334.92Z"/><path class="cls-2" d="M840.27,381.44H718.58L690.93,298H659.52Q705.9,431.56,752.3,565.11h27.13l-19.68-59.42H745.06l-27.73-81.63h134.3Q873.29,505.39,895,586.72c-17.23,24-25.42,36-41,60H740.74q-44.43-30.39-89.3-60L523.76,277c18.87-24.25,28.74-36.38,49.38-60.63H719.67q46.73,29.8,92.77,60.63Z"/><path class="cls-2" d="M1050.79,565.11h79.56c4.05,32.66,6.07,49,10.12,81.63H957.33Q906.18,431.55,855.05,216.36H991.17Q1021,390.74,1050.79,565.11Z"/><path class="cls-2" d="M1398.5,586.72q-32.43,29.35-63.74,60H1223.23q-33.56-30.62-68.29-60-20.52-185.18-41-370.36H1250l15.39,348.75h21q-5.54-174.37-11.06-348.75h136.13ZM1247.85,184H1145.08c-2.94-31.21-4.41-46.81-7.34-78h106.64C1245.77,137.14,1246.46,152.74,1247.85,184Zm131.49,0H1276.57c-1-31.21-1.44-46.81-2.39-78h106.64C1380.23,137.14,1379.93,152.74,1379.34,184Z"/><path class="cls-2" d="M1728.69,383.24H1607.11L1619.26,298h-26.42l-34.47,267.11h22.82q7.27-51,14.54-102h116.4q-12.83,61.83-25.64,123.65-39,29.35-77,60H1512q-33.24-30.71-67.87-60,9.64-154.86,19.3-309.73c26.5-20.62,53.42-40.65,80.4-60.63h142.82q32.58,29.67,64,60.63Q1739.71,330.12,1728.69,383.24Z"/><path class="cls-2" d="M1899.91,386.24h1.36q61.05-86.21,125.34-169.88h136.11q-92,98.37-178.95,201.09a2211.78,2211.78,0,0,1,20.14,229.29h-112.7c-3.12-59.09-8.16-117.7-15.15-176.46h-1.3L1822,646.74H1717.47q50.43-215.19,100.87-430.38h132.4Q1925.33,301.31,1899.91,386.24Z"/><path class="cls-3" d="M698,730.41l-1.78-1.22c-31-21.21-63-42.74-95.22-64L599.2,664,460.56,327.69,463,324.5c20.32-26.11,30.7-38.85,52.91-64.95L518,257.1H679.69l1.71,1.09c33.58,21.42,66.94,43.22,99.15,64.8l2.18,1.46,32.71,122.77h-144L642,358.16H623.23L679,518.63l-13.53-39.84H823.85l48.49,182-1.92,2.67C852,689.1,843.47,701.62,826.9,727.23l-2,3.18ZM731.8,629.35l-16.4-49.5H700.24l17.19,49.5Z"/><path class="cls-1" d="M677.66,264.06q49.86,31.82,99,64.72l29.7,111.48H676.49L647,351.2H613.45l99,285.12h29c-8.4-25.38-12.6-38.06-21-63.43H704.76l-29.6-87.14H818.5l46.26,173.63c-18.39,25.63-27.13,38.44-43.7,64.07H700.14Q652.72,691,604.82,659.38L468.54,328.78c20.14-25.89,30.68-38.83,52.71-64.72H677.66m4.06-13.92H514.82l-4.17,4.9c-22,25.88-32.94,39.28-53.1,65.18l-5,6.39,3.09,7.47L592,664.69l1.63,3.95,3.57,2.36c32.14,21.23,64.15,42.74,95.13,63.94l3.56,2.43h132.8l4.11-6.36c16.49-25.5,25-38,43.33-63.51l3.83-5.35-1.69-6.36L832,482.17l-2.76-10.34H670.09L633,365.13h3.91l26.34,79.51,3.16,9.55H824.5l-4.66-17.51L805,380.93l-14.85-55.74-1.35-5.06-4.35-2.92c-32.26-21.61-65.66-43.44-99.28-64.89l-3.43-2.18ZM710,586.81h.34l7.18,21.65L710,586.81Z"/><polygon class="cls-3" points="925.82 730.41 813.34 257.1 973.32 257.1 1036.96 629.35 1122.16 629.35 1134.68 730.41 925.82 730.41"/><path class="cls-1" d="M967.45,264.06l63.63,372.26H1116c4.31,34.85,6.47,52.27,10.79,87.13H931.32L822.15,264.06h145.3m11.75-13.92H804.53l4.08,17.14L917.77,726.67l2.55,10.7h222.24l-1.94-15.64-5.82-47-5-40.15-1.52-12.21h-85.48L1014.3,455.47,981.18,261.72l-2-11.58Z"/><path class="cls-3" d="M1212.44,730.41l-2-1.82c-23.46-21.41-47.92-42.91-72.69-63.9l-2.12-1.79-45-405.8h159.74l16.41,372.25h8.54l-11.8-372.25h159.69l-14.18,405.47-2.19,2c-23.16,21-46,42.46-67.83,63.88l-2,2Zm52.88-494-3-97.21h128.1l-1.84,97.21Zm-139.93,0-9.15-97.21h128.14l4.32,97.21Z"/><path class="cls-1" d="M1383.35,146.19c-.63,33.31-.94,50-1.58,83.28h-109.7l-2.55-83.28h113.83m-145.63,0,3.7,83.28h-109.7c-3.13-33.32-4.7-50-7.83-83.28h113.83m178.33,117.87-13.83,395.32q-34.6,31.33-68,64.07h-119q-35.81-32.69-72.88-64.07-21.9-197.65-43.81-395.32h145.3q8.22,186.13,16.42,372.26h22.39q-5.91-186.14-11.81-372.26h145.3m-18.51-131.8H1255.17l.44,14.35,1.66,54.44.89,28.85.41,13.5h136.87l.26-13.67.82-43.24.76-40,.26-14.19Zm-146.5,0H1108.6l1.43,15.23,4.8,51,3,32.23,1.19,12.63H1256l-.65-14.55-2.1-47.31-1.6-36-.59-13.31Zm179.43,117.88H1082.9l1.71,15.46,43.81,395.31.61,5.51,4.23,3.58c24.71,20.94,49.11,42.39,72.5,63.73l4,3.64h130.14l4.06-4c21.77-21.34,44.52-42.77,67.63-63.69l4.36-4,.21-5.88,7.3-208.61L1430,264.55l.5-14.41Z"/><path class="cls-3" d="M1520.68,730.41l-2-1.85c-23.18-21.42-47.48-42.91-72.22-63.87l-2.67-2.26,21-337.22,2.47-1.93c28.68-22.31,58.18-44.25,86-64.81l1.85-1.37h157.44l2,1.82c23.4,21.3,46.46,43.14,68.56,64.9l2.7,2.66-25.44,122.67H1616.86l13-91h-14l-35,271.19h10.4l15.52-108.91h138.84L1715.9,663.36l-2.1,1.58c-27.88,21-55.48,42.51-82,63.92l-1.91,1.55Z"/><path class="cls-1" d="M1709.82,264.06q34.79,31.67,68.36,64.72l-23.52,113.4H1624.89c5.18-36.39,7.78-54.59,13-91h-28.2l-36.78,285.12h24.35q7.77-54.47,15.52-108.92H1737q-13.7,66-27.37,132-41.61,31.33-82.21,64.07h-104q-35.48-32.79-72.44-64.07,10.29-165.3,20.6-330.6c28.28-22,57-43.39,85.82-64.72h152.44m5.39-13.92H1552.78l-3.69,2.73c-27.8,20.58-57.34,42.55-86.08,64.92l-5,3.85-.39,6.27-11.34,182-9.26,148.62-.44,7L1442,670c24.66,20.89,48.88,42.31,72,63.66l4,3.7h114.38l3.82-3.09c26.49-21.37,54-42.82,81.84-63.78l4.19-3.15,1.07-5.14,15.27-73.63,12.1-58.35,3.48-16.76H1602.76l3.78-29.35,3.62-28H1766l2.31-11.1,23.52-113.41,1.54-7.42-5.41-5.32c-22.16-21.83-45.29-43.73-68.75-65.09l-4-3.63Z"/><path class="cls-3" d="M1921.53,730.41l-.35-6.6c-2.76-52.23-7-105.08-12.68-157.5l-49.11,164.1H1733.9L1844.83,257.1H2001l-46,153.59c36.09-50.24,73.69-100.85,112.07-150.86l2.09-2.73H2234l-11,11.72c-65.81,70.35-129.3,141.66-188.77,212a2352.16,2352.16,0,0,1,21.13,242.38l.26,7.21Z"/><path class="cls-1" d="M2217.94,264.06q-98.24,105-191,214.65a2359.24,2359.24,0,0,1,21.49,244.74H1928.14c-3.34-63.08-8.72-125.64-16.17-188.36h-1.4q-28.17,94.17-56.36,188.36H1742.69q53.83-229.69,107.66-459.39h141.32q-27.12,90.68-54.25,181.33h1.45q65.16-92,133.78-181.33h145.29m32.1-13.92H2065.79l-4.18,5.45c-30,39-59.44,78.43-88.09,117.73L2005,268.06l5.37-17.92H1839.31l-2.52,10.75L1729.13,720.27l-4,17.1h139.46l3-9.93,37.58-125.58c3.91,40.83,7,81.76,9.1,122.32l.7,13.19h147.92l-.51-14.42a2360.33,2360.33,0,0,0-20.76-240c58.81-69.5,121.54-139.91,186.53-209.37L2250,250.14Z"/></g></svg>