<svg xmlns="http://www.w3.org/2000/svg" viewBox="0 0 1781.43 500.38"><defs><style>.cls-1{fill:#5ad4ff;}.cls-2{fill:#fcbf29;}</style></defs><title>Gluck_INVADERS_Layout</title><g id="Camada_2" data-name="Camada 2"><path class="cls-1" d="M608.87,117.84,549.56,27.39h31.15l41.6,65.91,42.24-65.91h30.08L635.32,117.2v59.52H608.87Z"/><path class="cls-1" d="M797.45,179.28a79.87,79.87,0,0,1-31.57-6.08,74.4,74.4,0,0,1-40.54-41,77.35,77.35,0,0,1-5.76-29.76v-.43a77.35,77.35,0,0,1,5.76-29.76,75.35,75.35,0,0,1,16.22-24.53A78,78,0,0,1,766.3,31a78.77,78.77,0,0,1,31.58-6.18,79.73,79.73,0,0,1,31.57,6.08A75,75,0,0,1,854,47.44a75.8,75.8,0,0,1,16,24.42,77.35,77.35,0,0,1,5.76,29.76v.43A77.27,77.27,0,0,1,870,131.81a75.38,75.38,0,0,1-16.21,24.53,77.83,77.83,0,0,1-56.32,22.94Zm.43-24.32a49.08,49.08,0,0,0,36.26-15.39,51.17,51.17,0,0,0,10.35-16.68,56.37,56.37,0,0,0,3.73-20.52v-.43a57.22,57.22,0,0,0-3.73-20.62A50,50,0,0,0,817.93,53a51.54,51.54,0,0,0-40.85-.1,48.23,48.23,0,0,0-15.9,11.33A52.08,52.08,0,0,0,750.84,81a56.17,56.17,0,0,0-3.74,20.52v.42a56.26,56.26,0,0,0,3.74,20.53,52.46,52.46,0,0,0,10.45,16.88,48.38,48.38,0,0,0,16.11,11.44A49.83,49.83,0,0,0,797.88,155Z"/><path class="cls-1" d="M990.08,179.06a78,78,0,0,1-26.24-4.16,52.89,52.89,0,0,1-20.05-12.48A55.5,55.5,0,0,1,931,141.84q-4.49-12.27-4.48-28.48v-86h26.24v84.9q0,20.91,10,31.68t27.73,10.77q17.49,0,27.52-10.34t10-31v-86h26.24v84.69q0,16.64-4.59,29.22a57.32,57.32,0,0,1-12.91,21,52,52,0,0,1-20.16,12.58A79.55,79.55,0,0,1,990.08,179.06Z"/><path class="cls-1" d="M1111.68,27.39h66.56a73.05,73.05,0,0,1,25,3.94,50.27,50.27,0,0,1,18.13,11,43.16,43.16,0,0,1,9.17,14.29,48.3,48.3,0,0,1,3.2,17.92V75q0,18.35-9.92,29.54a52.54,52.54,0,0,1-25.49,15.68l40.32,56.54h-31.15l-36.69-52.06h-32.85v52.06h-26.24Zm64.64,74q14.07,0,22.4-6.72T1207,76.45V76q0-12.15-8.11-18.45t-22.83-6.29h-38.18v50.13Z"/><path class="cls-1" d="M538.79,434.84A94.22,94.22,0,0,1,505.72,429a90.23,90.23,0,0,1-29.22-18l15.78-18.77a90.8,90.8,0,0,0,22.08,14.4,60.74,60.74,0,0,0,25.07,5q12.15,0,19.3-5.23t7.15-13.54v-.43a17.2,17.2,0,0,0-1.39-7.14,15.45,15.45,0,0,0-5.12-5.87,40.34,40.34,0,0,0-10.24-5.12,145.66,145.66,0,0,0-17-4.69,165.38,165.38,0,0,1-21.22-6.3,57.34,57.34,0,0,1-15.57-8.53,32.84,32.84,0,0,1-9.6-12.27q-3.31-7.25-3.31-17.49v-.43a40.16,40.16,0,0,1,3.84-17.6,40.61,40.61,0,0,1,10.56-13.65,49.41,49.41,0,0,1,16.1-8.85,63,63,0,0,1,20.48-3.2,85.59,85.59,0,0,1,29.55,4.8,88,88,0,0,1,24.64,14l-14.08,19.84a91.34,91.34,0,0,0-20.27-11.41A54.93,54.93,0,0,0,533,304.5q-11.52,0-17.92,5.12t-6.4,12.59v.42a18.34,18.34,0,0,0,1.49,7.58,14.6,14.6,0,0,0,5.55,6,48.61,48.61,0,0,0,10.88,5q6.82,2.35,17.7,4.91a163.65,163.65,0,0,1,20.7,6.61,53.94,53.94,0,0,1,15,8.86,33.28,33.28,0,0,1,9.06,12.16,40.43,40.43,0,0,1,3,16.1v.43a43.28,43.28,0,0,1-4,18.77,40.21,40.21,0,0,1-11,14.08,48.73,48.73,0,0,1-16.86,8.75A73.74,73.74,0,0,1,538.79,434.84Z"/><path class="cls-1" d="M713.72,435.27a75.82,75.82,0,0,1-30.3-6,74.42,74.42,0,0,1-24-16.32,75.26,75.26,0,0,1-15.89-24.43,78.67,78.67,0,0,1-5.76-30.08v-.42a79.36,79.36,0,0,1,5.65-30,75.62,75.62,0,0,1,15.9-24.53,74.59,74.59,0,0,1,24.32-16.64,77.75,77.75,0,0,1,31.14-6.08,95.71,95.71,0,0,1,18.67,1.69,76.73,76.73,0,0,1,15.47,4.76,73,73,0,0,1,13,7.3,102.33,102.33,0,0,1,11.31,9.3l-16.86,19.4a84.6,84.6,0,0,0-19-13.44,49.57,49.57,0,0,0-22.83-5.12,46.63,46.63,0,0,0-19.73,4.17,47.79,47.79,0,0,0-15.58,11.33A53.49,53.49,0,0,0,669,337a56.45,56.45,0,0,0-3.73,20.52v.43a58.5,58.5,0,0,0,3.63,20.63,50.82,50.82,0,0,0,10.24,16.89,48.82,48.82,0,0,0,15.68,11.32A46.63,46.63,0,0,0,714.57,411q13.65,0,23.47-5.12a88.87,88.87,0,0,0,19.41-14.08l16.85,17.07a96.88,96.88,0,0,1-12,11,79.13,79.13,0,0,1-13.55,8.32,68.25,68.25,0,0,1-15.89,5.34A93.79,93.79,0,0,1,713.72,435.27Z"/><path class="cls-1" d="M894.41,435.27a80,80,0,0,1-31.58-6.08,74.93,74.93,0,0,1-24.53-16.53,75.74,75.74,0,0,1-16-24.43,77.27,77.27,0,0,1-5.76-29.76v-.42a77.27,77.27,0,0,1,5.76-29.76,75.26,75.26,0,0,1,16.21-24.54,77.88,77.88,0,0,1,56.32-22.93,80,80,0,0,1,31.58,6.08,75.19,75.19,0,0,1,24.53,16.53,76,76,0,0,1,16,24.43,77.35,77.35,0,0,1,5.76,29.76v.43a77.35,77.35,0,0,1-5.76,29.76,75.35,75.35,0,0,1-16.22,24.53,77.83,77.83,0,0,1-56.31,22.93Zm.42-24.32a49.09,49.09,0,0,0,36.27-15.39,51.29,51.29,0,0,0,10.35-16.67,56.37,56.37,0,0,0,3.73-20.52v-.43a57.28,57.28,0,0,0-3.73-20.63A51.18,51.18,0,0,0,931,320.43,50.52,50.52,0,0,0,914.89,309a49.63,49.63,0,0,0-56.75,11.22A52.49,52.49,0,0,0,847.79,337a56.24,56.24,0,0,0-3.73,20.52v.43a56.17,56.17,0,0,0,3.73,20.52,52.81,52.81,0,0,0,10.46,16.89,48.45,48.45,0,0,0,16.1,11.43A49.9,49.9,0,0,0,894.83,411Z"/><path class="cls-1" d="M1025.81,283.38h66.56a73,73,0,0,1,25,3.95,50.21,50.21,0,0,1,18.14,11,43.21,43.21,0,0,1,9.17,14.3,48.47,48.47,0,0,1,3.2,17.92V331q0,18.36-9.92,29.55a52.61,52.61,0,0,1-25.49,15.68l40.32,56.53H1121.6l-36.69-52h-32.86v52h-26.24Zm64.64,74q14.08,0,22.4-6.72t8.32-18.24V332q0-12.16-8.1-18.45t-22.83-6.3h-38.19v50.14Z"/><path class="cls-1" d="M1201.38,283.38H1312.1v23.47h-84.48v38.82h74.88v23.47h-74.88v40.1h85.55v23.47H1201.38Z"/><path class="cls-2" d="M139.5,298.79H0v-66.9H139.5Zm107.69-55.48H173V178.86H99.53V114.41H26.92V47.52h74.24V112h73.42v64.44h72.61Zm3.26,110.13H177v67.72h-71v65.26H33.45V418.71h70.16V354.26h74.24V286.55h72.6Zm111-209.66H287.16V78.52h-72.6V11.62H288.8V76.07h72.6ZM358.14,408.1H288v62H214.56V402.39h71V341.21h72.61ZM1566.87,78.52h-71.79v65.26h-75V76.07h71.79V11.62h75Zm0,391.59h-72.6l-.82-62h-70.16V341.21h72.61v61.18h71ZM1748,486.42h-73.42V421.16H1604.4V353.44H1531V286.55h72.6v67.71h74.24v64.45H1748Zm6.53-372h-71.79v64.45H1609.3v64.45h-75.06v-66.9H1606V112h74.24V47.52h74.24Zm26.92,184.38h-139.5v-66.9h139.5Z"/></g></svg>