<svg xmlns="http://www.w3.org/2000/svg" viewBox="0 0 800 800"><defs><style>.cls-1{fill:#e73d2a;}</style></defs><title>Gluck_INVADERS_Layout</title><g id="Camada_2" data-name="Camada 2"><path class="cls-1" d="M551.8,475.64A148.93,148.93,0,0,0,452,374.78c-43.89-13.42-94.65-9.58-135,12.73-47.8,26.43-73.21,76.32-77.05,129.69-1.13,15.85-.66,59-.58,61,.35,8.87,5.91,12.67,14.37,12.67,18.14,0,36.29,0,54.42,0,4.35,0,9,.72,13.16-1,7.64-3.18,6.59-11.57,6.58-18.36-.06-25-1.65-57.2,2-69,5-16.39,15.27-31.31,30.06-40.3,21.76-13.22,52.78-13.8,75.34-2.2,16.09,8.28,27.46,23.24,33.24,40.19,4.18,12.23,2.71,68.09,2.71,68.09s-1.27,12.49,1.68,17.36c3.19,5.29,9.23,5.38,14.63,5.22,17.94-.5,36-.05,54,0,6.75,0,14.8.36,17.52-7.37,1-2.92.78-22.15.78-28.64C559.76,514.56,563.38,514.66,551.8,475.64Z"/><path class="cls-1" d="M399.75,4.39c-218,0-395.36,177.36-395.36,395.36S181.75,795.1,399.75,795.1,795.1,617.75,795.1,399.75,617.75,4.39,399.75,4.39Zm72.16,83.8c-.2,9.62-.82,17.73-2.29,22.5-5,16.39-15.27,31.31-30.06,40.3-21.75,13.22-52.78,13.8-75.34,2.2C348.13,144.91,336.76,130,331,113c-1.48-4.34-2.25-14.13-2.63-25a321.14,321.14,0,0,1,143.56.17ZM399.75,719.51C223.43,719.51,80,576.07,80,399.75,80,280.3,145.82,176,243.1,121.07c1.17,4.66,2.66,10,4.57,16.46a149.35,149.35,0,0,0,56.53,79.56,47,47,0,0,0-16.14,11.11c-13.89,14.76-18,37.17-8.64,55.42,7.87,15.38,25,26.81,42.42,27.28,21.76.57,42.5-14.33,48.59-35.23a49,49,0,0,0-1.8-32.24,183.08,183.08,0,0,0,57.8.79,49.08,49.08,0,0,0-3.27,21.63c1.91,25.09,24.13,45.06,49.22,45.06,15.23,0,30.42-8.54,39.42-20.62,12-16.1,12-38.19,1.17-54.89a48.5,48.5,0,0,0-18.89-16.91c33.38-22.92,53.95-58.34,62-97.58,97.44,54.85,163.4,159.28,163.4,278.84C719.51,576.07,576.07,719.51,399.75,719.51Z"/></g></svg>