<svg id="Camada_1" data-name="Camada 1" xmlns="http://www.w3.org/2000/svg" viewBox="0 0 800 800"><defs><style>.cls-1{fill:#fcbf29;}</style></defs><title>Gluck_INVADERS_Layout</title><path class="cls-1" d="M546.72,339.46c-18.07,0-36.14,0-54.21,0-4.33,0-9-.72-13.11,1-7.61,3.17-6.56,11.53-6.55,18.29,0,24.88,0,49.78,0,74.66,0,12.17,1.66,25-2,36.76-5,16.32-15.21,31.19-29.94,40.14-21.67,13.18-52.59,13.76-75.06,2.2-16-8.25-27.35-23.16-33.11-40-4.16-12.19-2.7-37.64-2.7-37.64V362s1.26-12.43-1.68-17.29c-3.17-5.27-9.19-5.36-14.56-5.2-17.88.5-35.88,0-53.76,0-6.73,0-14.75-.36-17.46,7.35-1,2.9-.77,22.06-.77,28.53,0,40.11-3.6,82.68,7.94,121.55a148.34,148.34,0,0,0,99.45,100.48c43.72,13.38,94.29,9.55,134.49-12.68,47.62-26.32,72.93-76,76.75-129.19,1.13-15.79.59-31.79.59-47.61,0-16.61.07-53.84,0-55.83-.35-8.84-5.89-12.62-14.32-12.62"/><path class="cls-1" d="M323.63,311.87c21.67.57,42.33-14.27,48.4-35.09A49.22,49.22,0,0,0,349.83,221c-19.12-11.14-44.68-7.63-59.86,8.5-13.83,14.7-17.89,37-8.61,55.21,7.85,15.32,24.91,26.71,42.27,27.17"/><path class="cls-1" d="M473.59,311.88c15.18,0,30.31-8.51,39.27-20.54,12-16,12-38,1.17-54.69a49.16,49.16,0,0,0-56.94-19.54c-20.83,7.12-34.2,28-32.52,49.89,1.9,25,24,44.88,49,44.88"/><path class="cls-1" d="M401.24,81.83c-175.65,0-318.55,142.9-318.55,318.55s142.9,318.56,318.55,318.56S719.79,576,719.79,400.38,576.89,81.83,401.24,81.83m0,712.41C184.06,794.24,7.38,617.56,7.38,400.38S184.06,6.53,401.24,6.53,795.09,183.21,795.09,400.38,618.41,794.24,401.24,794.24"/></svg>