<svg xmlns="http://www.w3.org/2000/svg" viewBox="0 0 800 800"><defs><style>.cls-1{fill:#4ab271;}</style></defs><title>Gluck_INVADERS_Layout</title><g id="Camada_2" data-name="Camada 2"><rect class="cls-1" x="223.1" y="427.65" width="356.28" height="92.44" rx="1.64"/><path class="cls-1" d="M321.83,310.9c21.76.57,42.49-14.33,48.59-35.23a49.42,49.42,0,0,0-22.29-56c-19.19-11.18-44.85-7.65-60.08,8.53-13.89,14.76-18,37.17-8.64,55.42,7.87,15.38,25,26.81,42.42,27.28"/><path class="cls-1" d="M472.37,310.91c15.23,0,30.42-8.54,39.42-20.62,12-16.1,12-38.19,1.17-54.89a49.36,49.36,0,0,0-57.16-19.63c-20.91,7.15-34.32,28.16-32.65,50.08,1.91,25.09,24.13,45.06,49.22,45.06"/><path class="cls-1" d="M399.74,80C223.42,80,80,223.43,80,399.75S223.42,719.51,399.74,719.51,719.5,576.07,719.5,399.75,576.06,80,399.74,80m0,715.12c-218,0-395.36-177.35-395.36-395.35S181.74,4.39,399.74,4.39,795.09,181.75,795.09,399.75,617.74,795.1,399.74,795.1"/></g></svg>