<svg xmlns="http://www.w3.org/2000/svg" viewBox="0 0 800 800"><defs><style>.cls-1{fill:#5ad4ff;}</style></defs><title>Gluck_INVADERS_Layout</title><g id="Camada_2" data-name="Camada 2"><path class="cls-1" d="M250.69,591.8c18.16,0,36.34,0,54.51,0,4.35,0,9,.72,13.18-1,7.64-3.19,6.59-11.59,6.58-18.39,0-25-1.65-57.29,2-69.11,5-16.41,15.29-31.36,30.11-40.36,21.79-13.25,52.86-13.83,75.46-2.21C448.63,469,460,484,465.81,501c4.19,12.25,2.72,68.2,2.72,68.2s-1.28,12.5,1.68,17.39c3.19,5.29,9.24,5.38,14.65,5.23,18-.51,36.06-.06,54,0,6.76,0,14.82.36,17.55-7.39,1-2.92.77-22.19.77-28.69,0-40.32,3.62-40.22-8-79.3a149.15,149.15,0,0,0-100-101c-43.95-13.45-94.8-9.6-135.22,12.74-47.88,26.47-73.32,76.45-77.16,129.9-1.14,15.88-.67,59.08-.58,61.09.35,8.88,5.92,12.69,14.39,12.69"/><path class="cls-1" d="M318.93,311.39c21.79.57,42.56-14.35,48.66-35.28A49.48,49.48,0,0,0,345.27,220c-19.22-11.2-44.92-7.67-60.18,8.54-13.91,14.79-18,37.23-8.66,55.51,7.89,15.4,25,26.86,42.5,27.32"/><path class="cls-1" d="M469.7,311.4c15.26,0,30.47-8.55,39.49-20.65,12-16.13,12-38.25,1.17-55a49.42,49.42,0,0,0-57.25-19.66c-20.94,7.16-34.38,28.21-32.7,50.16,1.91,25.13,24.16,45.13,49.29,45.13"/><path class="cls-1" d="M397,80.1C220.35,80.1,76.69,223.78,76.69,400.38S220.35,720.66,397,720.66,717.24,577,717.24,400.38,573.56,80.1,397,80.1m0,716.27c-218.35,0-396-177.64-396-396s177.64-396,396-396S793,182,793,400.38s-177.64,396-396,396"/></g></svg>